<svg width="50" height="50" viewBox="0 0 50 50" fill="none" xmlns="http://www.w3.org/2000/svg">
<g id="email-ic">
<path id="Vector" d="M44.9028 8.33333C44.7135 8.31383 44.5227 8.31383 44.3334 8.33333H5.44449C5.19524 8.33717 4.94765 8.37455 4.70837 8.44444L24.7778 28.4306L44.9028 8.33333Z" fill="#FCFCFC"/>
<path id="Vector_2" d="M46.9584 10.2639L26.7362 30.4028C26.2157 30.9201 25.5117 31.2105 24.7778 31.2105C24.044 31.2105 23.3399 30.9201 22.8195 30.4028L2.77783 10.4167C2.71621 10.6431 2.68355 10.8765 2.6806 11.1111V38.8889C2.6806 39.6256 2.97326 40.3321 3.4942 40.8531C4.01513 41.374 4.72167 41.6667 5.45838 41.6667H44.3473C45.084 41.6667 45.7905 41.374 46.3115 40.8531C46.8324 40.3321 47.125 39.6256 47.125 38.8889V11.1111C47.114 10.8217 47.0578 10.5359 46.9584 10.2639V10.2639ZM7.36116 38.8889H5.4306V36.9028L15.5278 26.8889L17.4862 28.8472L7.36116 38.8889ZM44.3195 38.8889H42.375L32.25 28.8472L34.2084 26.8889L44.3056 36.9028L44.3195 38.8889Z" fill="#FCFCFC"/>
</g>
</svg>
