<svg width="50" height="50" viewBox="0 0 50 50" fill="none" xmlns="http://www.w3.org/2000/svg">
<g id="instagram-ic">
<path id="Vector" d="M25 18.4912C21.4161 18.4912 18.4913 21.416 18.4913 25C18.4913 28.584 21.4161 31.5088 25 31.5088C28.584 31.5088 31.5088 28.584 31.5088 25C31.5088 21.416 28.584 18.4912 25 18.4912ZM44.5215 25C44.5215 22.3047 44.5459 19.6338 44.3946 16.9434C44.2432 13.8184 43.5303 11.0449 41.2452 8.75977C38.9551 6.46973 36.1866 5.76172 33.0616 5.61035C30.3663 5.45899 27.6954 5.4834 25.0049 5.4834C22.3096 5.4834 19.6387 5.45899 16.9483 5.61035C13.8233 5.76172 11.0499 6.47461 8.7647 8.75977C6.47466 11.0498 5.76665 13.8184 5.61528 16.9434C5.46392 19.6387 5.48833 22.3096 5.48833 25C5.48833 27.6904 5.46392 30.3662 5.61528 33.0566C5.76665 36.1816 6.47954 38.9551 8.7647 41.2402C11.0547 43.5303 13.8233 44.2383 16.9483 44.3897C19.6436 44.541 22.3145 44.5166 25.0049 44.5166C27.7002 44.5166 30.3711 44.541 33.0616 44.3897C36.1866 44.2383 38.96 43.5254 41.2452 41.2402C43.5352 38.9502 44.2432 36.1816 44.3946 33.0566C44.5508 30.3662 44.5215 27.6953 44.5215 25V25ZM25 35.0147C19.4581 35.0147 14.9854 30.542 14.9854 25C14.9854 19.458 19.4581 14.9854 25 14.9854C30.542 14.9854 35.0147 19.458 35.0147 25C35.0147 30.542 30.542 35.0147 25 35.0147ZM35.4249 16.9141C34.1309 16.9141 33.086 15.8691 33.086 14.5752C33.086 13.2813 34.1309 12.2363 35.4249 12.2363C36.7188 12.2363 37.7637 13.2813 37.7637 14.5752C37.7641 14.8825 37.7039 15.1868 37.5865 15.4707C37.4691 15.7546 37.2968 16.0126 37.0795 16.2299C36.8623 16.4471 36.6043 16.6194 36.3204 16.7368C36.0364 16.8542 35.7321 16.9145 35.4249 16.9141V16.9141Z" fill="#FCFCFC"/>
</g>
</svg>
