<svg width="50" height="50" viewBox="0 0 50 50" fill="none" xmlns="http://www.w3.org/2000/svg">
<g id="snapchat-ic">
<path id="Vector" d="M25.3458 6.25C27.0041 6.25 32.6271 6.71458 35.2812 12.6521C36.1687 14.65 35.9562 18.0458 35.7812 20.7729L35.7771 20.8708C35.7541 21.175 35.7396 21.45 35.7271 21.725C35.933 21.8347 36.1648 21.8865 36.3979 21.875C36.9 21.8479 37.5021 21.675 38.1291 21.3729C38.3705 21.2534 38.6369 21.1934 38.9062 21.1979C39.2104 21.1979 39.5083 21.2458 39.7583 21.3479C40.5104 21.5979 40.9875 22.15 40.9875 22.7521C41.0146 23.5042 40.3354 24.1583 38.9562 24.7083C38.8083 24.7562 38.6041 24.8354 38.3812 24.9083C37.625 25.1354 36.4708 25.5104 36.1458 26.2646C35.9958 26.6417 36.0437 27.1417 36.35 27.7167L36.375 27.7437C36.475 27.9708 38.9333 33.5667 44.4041 34.4708C44.6048 34.5032 44.7868 34.6075 44.916 34.7644C45.0452 34.9212 45.1129 35.1198 45.1062 35.3229C45.1062 35.4479 45.0791 35.5708 45.0312 35.7C44.6291 36.6521 42.9 37.3562 39.7604 37.8271C39.6625 37.9792 39.5604 38.4562 39.4854 38.7833C39.4395 39.0833 39.3604 39.3854 39.2625 39.7083C39.1354 40.1625 38.8104 40.3854 38.3333 40.3854H38.2833C37.9795 40.3714 37.6777 40.3303 37.3812 40.2625C36.6802 40.1112 35.965 40.0358 35.2479 40.0375C34.7479 40.0375 34.2479 40.0625 33.7229 40.1625C32.7166 40.3375 31.8396 40.9396 30.8354 41.6417C29.4041 42.6438 27.775 43.8 25.3166 43.8C25.2166 43.8 25.1166 43.775 25.0125 43.775H24.7646C22.3041 43.775 20.7 42.6437 19.2708 41.6167C18.2687 40.9125 17.4166 40.3125 16.4104 40.1354C15.8965 40.0586 15.3779 40.0169 14.8583 40.0104C13.9521 40.0104 13.2521 40.1604 12.7271 40.2604C12.3729 40.3333 12.0729 40.3833 11.8208 40.3833C11.6011 40.4 11.3826 40.3388 11.2035 40.2104C11.0244 40.082 10.8963 39.8947 10.8416 39.6813C10.7416 39.3604 10.6937 39.0292 10.6187 38.7312C10.5396 38.4271 10.4416 37.9062 10.3416 37.7771C7.12705 37.4042 5.39789 36.7 4.99789 35.7229C4.94264 35.6045 4.91148 35.4764 4.90622 35.3458C4.89821 35.1424 4.96534 34.9431 5.09482 34.7859C5.2243 34.6288 5.40707 34.5248 5.6083 34.4937C11.0771 33.5896 13.5354 27.9958 13.6375 27.7604L13.6646 27.7125C13.9666 27.1354 14.0396 26.6292 13.8646 26.2562C13.5396 25.5292 12.3833 25.1542 11.6354 24.9021C11.4364 24.8518 11.2419 24.7849 11.0541 24.7021C9.19997 23.9729 8.94789 23.1437 9.04997 22.5687C9.19997 21.7687 10.1771 21.2417 11.0062 21.2417C11.25 21.2417 11.4583 21.2896 11.6479 21.3667C12.35 21.6896 12.9708 21.8687 13.4979 21.8687C13.7679 21.8787 14.0359 21.8176 14.275 21.6917L14.1896 20.7375C14.0229 18.0146 13.8104 14.6229 14.7041 12.6354C17.2791 6.72708 22.8896 6.27292 24.5458 6.27292L25.2437 6.25H25.3458Z" fill="#FCFCFC"/>
</g>
</svg>
