<svg width="50" height="50" viewBox="0 0 50 50" fill="none" xmlns="http://www.w3.org/2000/svg">
<g id="twitter-ic">
<path id="Vector" d="M45.3125 12.417C43.8184 13.0615 42.1924 13.5254 40.5176 13.7061C42.2564 12.673 43.5585 11.041 44.1797 9.11623C42.548 10.0869 40.7605 10.7675 38.8965 11.128C38.1174 10.2951 37.1752 9.63156 36.1284 9.17877C35.0817 8.72597 33.953 8.49359 32.8125 8.49611C28.1982 8.49611 24.4873 12.2363 24.4873 16.8262C24.4873 17.4707 24.5654 18.1153 24.6924 18.7354C17.7832 18.374 11.6211 15.0733 7.52441 10.0196C6.77796 11.2945 6.38679 12.7462 6.3916 14.2237C6.3916 17.1143 7.86133 19.6631 10.1025 21.1621C8.78176 21.1101 7.49191 20.7471 6.33789 20.1026V20.2051C6.33789 24.253 9.19922 27.6074 13.0127 28.3789C12.2967 28.5649 11.5601 28.6601 10.8203 28.6621C10.2783 28.6621 9.76562 28.6084 9.24805 28.5352C10.3027 31.836 13.374 34.2334 17.0312 34.3115C14.1699 36.5528 10.5859 37.8711 6.69434 37.8711C5.99609 37.8711 5.35156 37.8467 4.68262 37.7686C8.37402 40.1367 12.7539 41.5039 17.4707 41.5039C32.7832 41.5039 41.1621 28.8184 41.1621 17.8076C41.1621 17.4463 41.1621 17.085 41.1377 16.7237C42.7588 15.5371 44.1797 14.0674 45.3125 12.417Z" fill="#FCFCFC"/>
</g>
</svg>
